<svg xmlns="http://www.w3.org/2000/svg" width="420" height="360" viewBox="0 0 420 360">
<rect width="420" height="360" fill="white"/>
<circle cx="123.0" cy="167.8" r="146.4" fill="none" stroke="#aad4f5" stroke-width="1.5" stroke-dasharray="6,3"/>
<circle cx="273.0" cy="182.2" r="146.4" fill="none" stroke="#f5c6aa" stroke-width="1.5" stroke-dasharray="6,3"/>
<polygon points="210.0,50.0 60.0,300.0 360.0,300.0" fill="#f9f9ff" stroke="#333" stroke-width="2"/>
<line x1="210.0" y1="50.0" x2="186.0" y2="300.0" stroke="#555" stroke-width="1.5" stroke-dasharray="5,3"/>
<line x1="267.9" y1="146.5" x2="126.7" y2="188.8" stroke="#e63946" stroke-width="2.2"/>
<line x1="203.5" y1="171.0" x2="194.9" y2="163.1" stroke="#e63946" stroke-width="1.5"/>
<line x1="199.7" y1="172.1" x2="191.1" y2="164.3" stroke="#e63946" stroke-width="1.5"/>
<line x1="205.0" y1="295.0" x2="211.0" y2="305.0" stroke="#333" stroke-width="1.5"/>
<line x1="209.0" y1="295.0" x2="215.0" y2="305.0" stroke="#333" stroke-width="1.5"/>
<circle cx="210.0" cy="50.0" r="4" fill="#2b6cb0"/>
<text x="204.0" y="38.0" font-size="15" font-family="serif" fill="#2b6cb0" font-style="italic">A</text>
<circle cx="60.0" cy="300.0" r="4" fill="#2b6cb0"/>
<text x="42.0" y="305.0" font-size="15" font-family="serif" fill="#2b6cb0" font-style="italic">B</text>
<circle cx="360.0" cy="300.0" r="4" fill="#2b6cb0"/>
<text x="368.0" y="305.0" font-size="15" font-family="serif" fill="#2b6cb0" font-style="italic">C</text>
<circle cx="186.0" cy="300.0" r="4" fill="#555"/>
<text x="188.0" y="315.0" font-size="15" font-family="serif" fill="#555" font-style="italic">D</text>
<circle cx="267.9" cy="146.5" r="4" fill="#e63946"/>
<text x="275.9" y="142.5" font-size="15" font-family="serif" fill="#e63946" font-style="italic">E</text>
<circle cx="126.7" cy="188.8" r="4" fill="#e63946"/>
<text x="106.7" y="184.8" font-size="15" font-family="serif" fill="#e63946" font-style="italic">F</text>
<text x="98" y="36" font-size="11" fill="#7ab8e0" font-family="sans-serif">&#x2299;(ABD)</text>
<text x="248" y="51" font-size="11" fill="#d4956a" font-family="sans-serif">&#x2299;(ACD)</text>
<text x="157" y="156" font-size="12" fill="#e63946" font-family="sans-serif">EF ∥ BC (待证)</text>
</svg>
