<svg xmlns="http://www.w3.org/2000/svg" width="420" height="360">
<defs>
  <marker id="arrow" markerWidth="8" markerHeight="8" refX="6" refY="3" orient="auto">
    <path d="M0,0 L0,6 L9,3 z" fill="#999"/>
  </marker>
</defs>
<rect width="420" height="360" fill="white"/>
<line x1="30" y1="320" x2="30" y2="45" stroke="#ddd" stroke-width="1"/>
<line x1="85" y1="320" x2="85" y2="45" stroke="#ddd" stroke-width="1"/>
<line x1="140" y1="320" x2="140" y2="45" stroke="#ddd" stroke-width="1"/>
<line x1="195" y1="320" x2="195" y2="45" stroke="#ddd" stroke-width="1"/>
<line x1="250" y1="320" x2="250" y2="45" stroke="#ddd" stroke-width="1"/>
<line x1="305" y1="320" x2="305" y2="45" stroke="#ddd" stroke-width="1"/>
<line x1="360" y1="320" x2="360" y2="45" stroke="#ddd" stroke-width="1"/>
<line x1="30" y1="320" x2="360" y2="320" stroke="#ddd" stroke-width="1"/>
<line x1="30" y1="265" x2="360" y2="265" stroke="#ddd" stroke-width="1"/>
<line x1="30" y1="210" x2="360" y2="210" stroke="#ddd" stroke-width="1"/>
<line x1="30" y1="155" x2="360" y2="155" stroke="#ddd" stroke-width="1"/>
<line x1="30" y1="100" x2="360" y2="100" stroke="#ddd" stroke-width="1"/>
<line x1="30" y1="45" x2="360" y2="45" stroke="#ddd" stroke-width="1"/>
<line x1="30" y1="320" x2="370" y2="320" stroke="#999" stroke-width="1.5" marker-end="url(#arrow)"/>
<line x1="30" y1="320" x2="30" y2="35" stroke="#999" stroke-width="1.5" marker-end="url(#arrow)"/>
<circle cx="30" cy="320" r="2.5" fill="#bbb"/>
<circle cx="30" cy="265" r="2.5" fill="#bbb"/>
<circle cx="30" cy="210" r="2.5" fill="#bbb"/>
<circle cx="30" cy="155" r="2.5" fill="#bbb"/>
<circle cx="30" cy="100" r="2.5" fill="#bbb"/>
<circle cx="30" cy="45" r="2.5" fill="#bbb"/>
<circle cx="85" cy="320" r="2.5" fill="#bbb"/>
<circle cx="85" cy="265" r="2.5" fill="#bbb"/>
<circle cx="85" cy="210" r="2.5" fill="#bbb"/>
<circle cx="85" cy="155" r="2.5" fill="#bbb"/>
<circle cx="85" cy="100" r="2.5" fill="#bbb"/>
<circle cx="85" cy="45" r="2.5" fill="#bbb"/>
<circle cx="140" cy="320" r="2.5" fill="#bbb"/>
<circle cx="140" cy="265" r="2.5" fill="#bbb"/>
<circle cx="140" cy="210" r="2.5" fill="#bbb"/>
<circle cx="140" cy="155" r="2.5" fill="#bbb"/>
<circle cx="140" cy="100" r="2.5" fill="#bbb"/>
<circle cx="140" cy="45" r="2.5" fill="#bbb"/>
<circle cx="195" cy="320" r="2.5" fill="#bbb"/>
<circle cx="195" cy="265" r="2.5" fill="#bbb"/>
<circle cx="195" cy="210" r="2.5" fill="#bbb"/>
<circle cx="195" cy="155" r="2.5" fill="#bbb"/>
<circle cx="195" cy="100" r="2.5" fill="#bbb"/>
<circle cx="195" cy="45" r="2.5" fill="#bbb"/>
<circle cx="250" cy="320" r="2.5" fill="#bbb"/>
<circle cx="250" cy="265" r="2.5" fill="#bbb"/>
<circle cx="250" cy="210" r="2.5" fill="#bbb"/>
<circle cx="250" cy="155" r="2.5" fill="#bbb"/>
<circle cx="250" cy="100" r="2.5" fill="#bbb"/>
<circle cx="250" cy="45" r="2.5" fill="#bbb"/>
<circle cx="305" cy="320" r="2.5" fill="#bbb"/>
<circle cx="305" cy="265" r="2.5" fill="#bbb"/>
<circle cx="305" cy="210" r="2.5" fill="#bbb"/>
<circle cx="305" cy="155" r="2.5" fill="#bbb"/>
<circle cx="305" cy="100" r="2.5" fill="#bbb"/>
<circle cx="305" cy="45" r="2.5" fill="#bbb"/>
<circle cx="360" cy="320" r="2.5" fill="#bbb"/>
<circle cx="360" cy="265" r="2.5" fill="#bbb"/>
<circle cx="360" cy="210" r="2.5" fill="#bbb"/>
<circle cx="360" cy="155" r="2.5" fill="#bbb"/>
<circle cx="360" cy="100" r="2.5" fill="#bbb"/>
<circle cx="360" cy="45" r="2.5" fill="#bbb"/>
<polygon points="85,265 305,265 140,100" fill="rgba(100,149,237,0.18)" stroke="#4169e1" stroke-width="2.2"/>
<circle cx="140" cy="210" r="4" fill="none" stroke="#e05" stroke-width="1.5" stroke-dasharray="2,2"/>
<circle cx="140" cy="155" r="4" fill="none" stroke="#e05" stroke-width="1.5" stroke-dasharray="2,2"/>
<circle cx="195" cy="210" r="4" fill="none" stroke="#e05" stroke-width="1.5" stroke-dasharray="2,2"/>
<circle cx="85" cy="265" r="5" fill="#4169e1"/>
<text x="93" y="280" font-family="serif" font-size="13" fill="#222" font-weight="bold">A(1,1)</text>
<circle cx="305" cy="265" r="5" fill="#4169e1"/>
<text x="255" y="280" font-family="serif" font-size="13" fill="#222" font-weight="bold">B(5,1)</text>
<circle cx="140" cy="100" r="5" fill="#4169e1"/>
<text x="148" y="90" font-family="serif" font-size="13" fill="#222" font-weight="bold">C(2,4)</text>
<text x="81" y="336" font-family="serif" font-size="11" fill="#666">1</text>
<text x="136" y="336" font-family="serif" font-size="11" fill="#666">2</text>
<text x="191" y="336" font-family="serif" font-size="11" fill="#666">3</text>
<text x="246" y="336" font-family="serif" font-size="11" fill="#666">4</text>
<text x="301" y="336" font-family="serif" font-size="11" fill="#666">5</text>
<text x="356" y="336" font-family="serif" font-size="11" fill="#666">6</text>
<text x="12" y="269" font-family="serif" font-size="11" fill="#666">1</text>
<text x="12" y="214" font-family="serif" font-size="11" fill="#666">2</text>
<text x="12" y="159" font-family="serif" font-size="11" fill="#666">3</text>
<text x="12" y="104" font-family="serif" font-size="11" fill="#666">4</text>
<text x="12" y="49" font-family="serif" font-size="11" fill="#666">5</text>
<text x="374" y="324" font-family="serif" font-size="12" fill="#666">x</text>
<text x="22" y="31" font-family="serif" font-size="12" fill="#666">y</text>
<text x="210" y="22" text-anchor="middle" font-family="serif" font-size="14" fill="#333">格点三角形 ABC（格点用坐标纸表示）</text>
</svg>